<svg width="529" height="861" viewBox="0 0 529 861" fill="none" xmlns="http://www.w3.org/2000/svg">
<path fill-rule="evenodd" clip-rule="evenodd" d="M100.818 0.592163C62.0917 0.592163 30.6978 31.9862 30.6978 70.7126C30.6978 109.439 62.0917 140.833 100.818 140.833C139.545 140.833 170.939 109.439 170.939 70.7126C170.939 31.9862 139.545 0.592163 100.818 0.592163ZM100.82 30.4306C78.5725 30.4306 60.5376 48.4655 60.5376 70.7126C60.5376 92.9597 78.5725 110.995 100.82 110.995C123.067 110.995 141.102 92.9597 141.102 70.7126C141.102 48.4655 123.067 30.4306 100.82 30.4306Z" fill="#333333"/>
<path fill-rule="evenodd" clip-rule="evenodd" d="M100.818 361.334C62.0917 361.334 30.6978 392.728 30.6978 431.454C30.6978 470.181 62.0917 501.575 100.818 501.575C139.545 501.575 170.939 470.181 170.939 431.454C170.939 392.728 139.545 361.334 100.818 361.334ZM100.82 391.172C78.5725 391.172 60.5376 409.207 60.5376 431.454C60.5376 453.701 78.5725 471.736 100.82 471.736C123.067 471.736 141.102 453.701 141.102 431.454C141.102 409.207 123.067 391.172 100.82 391.172Z" fill="#333333"/>
<rect x="78.4385" y="110.995" width="44.7577" height="220.805" fill="#333333"/>
<rect x="144.084" y="93.0916" width="44.7577" height="220.805" transform="rotate(-90 144.084 93.0916)" fill="#333333"/>
<path fill-rule="evenodd" clip-rule="evenodd" d="M100.819 860.428C139.545 860.428 170.939 829.034 170.939 790.308C170.939 751.581 139.545 720.188 100.819 720.188C62.092 720.188 30.6981 751.581 30.6981 790.308C30.6981 829.034 62.092 860.428 100.819 860.428ZM100.817 830.59C123.064 830.59 141.099 812.555 141.099 790.308C141.099 768.061 123.064 750.026 100.817 750.026C78.5697 750.026 60.5349 768.061 60.5349 790.308C60.5349 812.555 78.5697 830.59 100.817 830.59Z" fill="#333333"/>
<rect x="123.198" y="750.026" width="44.7577" height="220.805" transform="rotate(-180 123.198 750.026)" fill="#333333"/>
<path fill-rule="evenodd" clip-rule="evenodd" d="M411.912 727.696C439.296 700.312 439.296 655.915 411.912 628.531C384.529 601.147 340.131 601.147 312.747 628.531C285.363 655.915 285.363 700.312 312.747 727.696C340.131 755.08 384.529 755.08 411.912 727.696ZM390.814 706.597C406.545 690.866 406.545 665.361 390.814 649.63C375.083 633.899 349.578 633.899 333.847 649.63C318.116 665.361 318.116 690.866 333.847 706.597C349.578 722.328 375.083 722.328 390.814 706.597Z" fill="#333333"/>
<rect x="349.669" y="633.806" width="44.7577" height="220.805" transform="rotate(135 349.669 633.806)" fill="#333333"/>
<path fill-rule="evenodd" clip-rule="evenodd" d="M529 431.454C529 392.728 497.606 361.334 458.88 361.334C420.153 361.334 388.759 392.728 388.759 431.454C388.759 470.181 420.153 501.575 458.88 501.575C497.606 501.575 529 470.181 529 431.454ZM499.16 431.454C499.16 409.207 481.125 391.172 458.878 391.172C436.631 391.172 418.596 409.207 418.596 431.454C418.596 453.701 436.631 471.736 458.878 471.736C481.125 471.736 499.16 453.701 499.16 431.454Z" fill="#333333"/>
<rect x="418.597" y="409.075" width="44.7577" height="220.805" transform="rotate(90 418.597 409.075)" fill="#333333"/>
<path fill-rule="evenodd" clip-rule="evenodd" d="M455.897 0.592163C417.171 0.592163 385.777 31.9862 385.777 70.7126C385.777 109.439 417.171 140.833 455.897 140.833C494.624 140.833 526.018 109.439 526.018 70.7126C526.018 31.9862 494.624 0.592163 455.897 0.592163ZM455.897 30.4306C433.65 30.4306 415.615 48.4655 415.615 70.7126C415.615 92.9597 433.65 110.995 455.897 110.995C478.144 110.995 496.179 92.9597 496.179 70.7126C496.179 48.4655 478.144 30.4306 455.897 30.4306Z" fill="#333333"/>
<rect x="433.518" y="110.995" width="44.7577" height="220.805" fill="#333333"/>
</svg>
