<svg width="20" height="21" viewBox="0 0 20 21" fill="none" xmlns="http://www.w3.org/2000/svg">
<path d="M12.5 18C14.3408 18 15.8333 16.5075 15.8333 14.6667V12.1667C15.8333 11.7067 15.46 11.3333 15 11.3333C14.54 11.3333 14.1667 11.7067 14.1667 12.1667V14.6667C14.1667 15.5875 13.4208 16.3333 12.5 16.3333H5.83333C4.9125 16.3333 4.16667 15.5875 4.16667 14.6667V8C4.16667 7.07916 4.9125 6.33333 5.83333 6.33333H8.33333C8.79333 6.33333 9.16666 5.96 9.16666 5.5C9.16666 5.04 8.79333 4.66667 8.33333 4.66667H5.83333C3.9925 4.66667 2.5 6.15916 2.5 8V14.6667C2.5 16.5075 3.9925 18 5.83333 18H12.5ZM9.16666 12.1667C9.37999 12.1667 9.60249 12.095 9.76582 11.9325L15.8333 5.86417V8.83333H17.5V3.83333C17.5 3.37333 17.1267 3 16.6667 3H11.6667V4.66667H14.635L8.5675 10.7342C8.2425 11.06 8.2425 11.6067 8.5675 11.9325C8.73083 12.095 8.95333 12.1667 9.16666 12.1667Z" fill="#45349F"/>
</svg>
