<svg width="20" height="21" viewBox="0 0 20 21" fill="none" xmlns="http://www.w3.org/2000/svg">
<path d="M11.8986 3.86539C11.4566 3.73967 10.9845 3.99526 10.8582 4.43818L7.52874 16.094C7.40247 16.5361 7.65901 17.0081 8.10107 17.1347C8.54305 17.2604 9.01516 17.0048 9.14151 16.5619L12.4709 4.90609C12.5972 4.464 12.3407 3.99194 11.8986 3.86539ZM5.682 4.69795C5.47307 4.73958 5.26324 4.8453 5.13572 5.03678L1.8063 10.0321C1.64066 10.2802 1.62077 10.5974 1.75436 10.8647L4.25143 15.86C4.45694 16.2705 4.95868 16.4553 5.36986 16.2497C5.78105 16.0441 5.96558 15.542 5.75999 15.1307L3.47101 10.5783L6.5404 5.9726C6.79535 5.59045 6.68873 5.05761 6.30626 4.80202C6.11499 4.67464 5.89092 4.65632 5.682 4.69795ZM15.2541 4.72376C15.052 4.65716 14.8354 4.64715 14.6298 4.75039C14.2186 4.95603 14.0341 5.45806 14.2397 5.86934L16.5287 10.4218L13.4593 15.0275C13.2043 15.4096 13.3109 15.9425 13.6934 16.1981C14.0759 16.4528 14.6089 16.3463 14.864 15.9633L18.1934 10.9679C18.359 10.7198 18.3789 10.4026 18.2453 10.1354L15.7482 5.14004C15.6455 4.93523 15.4562 4.79203 15.2541 4.72376Z" fill="#45349F"/>
</svg>
