<svg width="16" height="16" viewBox="0 0 16 16" fill="none" xmlns="http://www.w3.org/2000/svg">
<path d="M1.0102 0C0.754673 0 0.487464 0.0859441 0.292448 0.280804C-0.0974828 0.671524 -0.0974828 1.32704 0.292448 1.71776L6.56459 7.99426L0.292448 14.2708C-0.0974828 14.6615 -0.0974828 15.317 0.292448 15.7077C0.682479 16.0974 1.33792 16.0974 1.72795 15.7077L8 9.43123L14.272 15.7077C14.6621 16.0974 15.3175 16.0974 15.7076 15.7077C16.0975 15.317 16.0975 14.6615 15.7076 14.2708L9.43541 7.99426L15.7076 1.71776C16.0975 1.32704 16.0975 0.671524 15.7076 0.280804C15.5125 0.0859441 15.2452 0 14.9898 0C14.7343 0 14.4672 0.0859441 14.272 0.280804L8 6.55729L1.72795 0.280804C1.53294 0.0859441 1.26573 0 1.0102 0Z" fill="#45349F"/>
</svg>
