<svg width="20" height="21" viewBox="0 0 20 21" fill="none" xmlns="http://www.w3.org/2000/svg">
<path d="M9.99984 2.16663C5.3975 2.16663 1.6665 5.93781 1.6665 10.5901C1.6665 14.6468 4.626 18.1207 8.33425 18.8333L8.33317 16.1706C7.95309 16.3543 7.53234 16.4865 7.08317 16.4865C6.69159 16.4865 6.33059 16.4174 5.98942 16.2759C5.76159 16.1816 5.39567 15.7899 5.26025 15.5128C4.96934 14.9172 4.98409 14.2754 4.479 14.2754C4.24117 14.2754 3.87809 14.1759 3.88 13.9334C3.88159 13.7337 4.18209 13.6613 4.42692 13.6436C5.21167 13.5863 5.83609 14.3469 5.88525 14.4598C5.92692 14.555 6.02267 14.7218 6.09359 14.8018C6.32134 15.0604 6.672 15.223 7.08317 15.223C7.57375 15.223 7.99834 14.9905 8.203 14.6435C8.28625 14.5028 8.42075 14.1389 8.5415 13.9595C6.47117 13.8011 4.99984 12.6892 4.99984 10.1689C4.99984 9.42933 5.24609 8.69817 5.65084 8.14222C5.5535 7.57196 5.47009 6.6159 5.83317 5.53601C6.81642 5.53601 7.68334 6.06332 8.255 6.48365C8.54267 6.42637 8.86009 6.37836 9.1665 6.37836H10.8332C11.1165 6.37836 11.4512 6.42384 11.7186 6.48365C12.3187 6.03468 13.1477 5.53601 14.1665 5.53601C14.5822 6.77173 14.3767 7.91479 14.2967 8.35281C14.6847 8.95256 15.0173 9.78312 14.9928 10.4957C14.9173 12.6783 13.5162 13.8576 11.4933 13.9612C11.6284 14.2442 11.6665 14.4775 11.6665 14.8018L11.6689 18.8232C15.4314 18.0482 18.3332 14.646 18.3332 10.5901C18.3332 5.93781 14.6022 2.16663 9.99984 2.16663Z" fill="#45349F"/>
</svg>
