<svg width="93" height="29" viewBox="0 0 93 29" fill="none" xmlns="http://www.w3.org/2000/svg">
<path d="M86.6304 6.75293V13.4295H82.4202V6.75293" fill="#66D9FB"/>
<path d="M86.6304 17.8232V24.519H82.4202V17.8232" fill="#C28AEB"/>
<path d="M86.5635 13.3784H92.9818V17.8551H86.5635" fill="#7DFA8C"/>
<g style="mix-blend-mode:multiply">
<path d="M76.002 13.3784H82.4203V17.8551H76.002" fill="#FF9F1A"/>
</g>
<path d="M86.6304 13.3784H82.4202V17.8231H86.6304V13.3784Z" fill="#FF3838"/>
<path d="M4.91984 28.1389H0.0180664V0H4.91984V10.6096C6.10282 9.13235 8.09265 8.51202 9.82162 8.51202C14.4322 8.51202 16.5676 11.8887 16.5676 16.0903V28.1389H11.6659V16.9793C11.6659 14.8433 10.6709 13.1741 8.31105 13.1741C6.24842 13.1741 5.02904 14.8049 4.91984 16.9025V28.1389Z" fill="#333333"/>
<path d="M24.0114 17.1391L28.4704 16.4356C29.5017 16.2821 29.8353 15.7385 29.8353 15.0798C29.8353 13.7176 28.8404 12.5921 26.8021 12.5921C24.7637 12.5921 23.4836 14.0246 23.338 15.7002L18.9641 14.7089C19.2552 11.7159 21.876 8.41602 26.7414 8.41602C32.4864 8.41602 34.6279 11.8311 34.6279 15.681V25.0819C34.6321 26.1051 34.7051 27.1266 34.8463 28.1388H30.351C30.2268 27.3828 30.1659 26.6167 30.169 25.8493C29.5863 26.7682 28.7877 27.5121 27.851 28.0087C26.9143 28.5052 25.8715 28.7373 24.8244 28.6824C20.9539 28.6824 18.594 25.9261 18.594 22.9267C18.594 19.5053 20.9903 17.5995 24.0114 17.1391ZM29.8353 20.4006V19.5437L25.7465 20.1832C24.4907 20.3814 23.4958 21.1169 23.4958 22.5942C23.4958 23.7261 24.2662 24.8133 25.8557 24.8133C27.9244 24.8325 29.8353 23.7837 29.8353 20.4006Z" fill="#333333"/>
<path d="M41.1857 18.5461C41.1857 22.0059 43.3211 23.95 45.8266 23.95C46.7615 23.9905 47.682 23.6966 48.4386 23.1162C49.1951 22.5357 49.7434 21.7027 49.9943 20.7524L54.3076 22.2681C53.4947 25.4657 50.6677 28.7144 45.8144 28.7144C44.547 28.7366 43.2885 28.4878 42.1148 27.9831C40.9411 27.4785 39.8765 26.7284 38.9853 25.7782C38.0941 24.8279 37.3947 23.6972 36.9294 22.4542C36.4641 21.2113 36.2424 19.8818 36.2778 18.5461C36.2778 12.6433 40.4092 8.40967 45.681 8.40967C50.6192 8.40967 53.4219 11.6073 54.1742 14.856L49.8123 16.4357C49.5978 15.4936 49.0793 14.6594 48.3455 14.0761C47.6117 13.4927 46.7084 13.1965 45.7902 13.238C43.2847 13.2125 41.1857 15.1182 41.1857 18.5461Z" fill="#333333"/>
<path d="M66.3922 17.056L73.8055 28.1389H67.7936L63.001 20.8356L60.9748 23.0867V28.1389H56.073V0H60.9748V16.1287L67.2415 9.01724H73.6539L66.3922 17.056Z" fill="#333333"/>
</svg>
