<svg width="25" height="24" viewBox="0 0 25 24" fill="none" xmlns="http://www.w3.org/2000/svg">
<path d="M17.1567 1.17496e-05H8.31185C7.34315 -0.00173407 6.38364 0.191089 5.48835 0.567422C4.59305 0.943756 3.77959 1.4962 3.09461 2.19306C2.40964 2.88992 1.86662 3.7175 1.49671 4.62833C1.12679 5.53916 0.93726 6.51532 0.938976 7.50084V16.4992C0.938976 18.4885 1.71576 20.3964 3.09844 21.8031C4.48112 23.2097 6.35644 24 8.31185 24H17.1567C19.111 23.9965 20.9844 23.2051 22.3663 21.7992C23.7482 20.3933 24.5261 18.4874 24.5296 16.4992V7.50084C24.5296 5.51149 23.7528 3.60363 22.3701 2.19695C20.9874 0.790275 19.1121 1.17496e-05 17.1567 1.17496e-05ZM22.3672 16.4992C22.3672 17.9051 21.8182 19.2534 20.8411 20.2475C19.8639 21.2416 18.5386 21.8001 17.1567 21.8001H8.31185C6.92994 21.8001 5.60462 21.2416 4.62746 20.2475C3.6503 19.2534 3.10134 17.9051 3.10134 16.4992V7.50084C3.10134 6.09494 3.6503 4.74663 4.62746 3.75251C5.60462 2.75839 6.92994 2.1999 8.31185 2.1999H17.1567C18.5386 2.1999 19.8639 2.75839 20.8411 3.75251C21.8182 4.74663 22.3672 6.09494 22.3672 7.50084V16.4992Z" fill="#333333"/>
<path d="M12.7278 6.00343C11.5602 6.00344 10.4188 6.35586 9.44808 7.0161C8.4774 7.67634 7.72108 8.61472 7.27484 9.71245C6.8286 10.8102 6.7125 12.0179 6.94125 13.1828C7.16999 14.3477 7.7333 15.4174 8.55986 16.2564C9.38642 17.0955 10.4391 17.6662 11.5846 17.8963C12.7301 18.1265 13.917 18.0057 14.995 17.5493C16.073 17.0929 16.9937 16.3214 17.6406 15.3324C18.2874 14.3434 18.6313 13.1814 18.6287 11.9935C18.6287 11.2058 18.476 10.4258 18.1793 9.69814C17.8826 8.97052 17.4477 8.30959 16.8996 7.75319C16.3515 7.19679 15.7008 6.75584 14.985 6.45559C14.2691 6.15534 13.5021 6.00169 12.7278 6.00343ZM12.7278 15.7439C11.9987 15.7439 11.286 15.524 10.6797 15.1119C10.0735 14.6998 9.60099 14.114 9.32197 13.4287C9.04296 12.7434 8.96995 11.9893 9.1122 11.2618C9.25444 10.5343 9.60554 9.86606 10.1211 9.34156C10.6367 8.81705 11.2935 8.45986 12.0086 8.31515C12.7237 8.17044 13.4649 8.24471 14.1385 8.52857C14.8121 8.81243 15.3879 9.29313 15.793 9.90988C16.198 10.5266 16.4142 11.2517 16.4142 11.9935C16.4142 12.486 16.3189 12.9737 16.1336 13.4287C15.9484 13.8837 15.6768 14.2972 15.3345 14.6455C14.9922 14.9937 14.5858 15.27 14.1385 15.4584C13.6913 15.6469 13.2119 15.7439 12.7278 15.7439Z" fill="#333333"/>
<path d="M19.0719 6.34763C19.5035 6.34763 19.8534 5.99163 19.8534 5.55248C19.8534 5.11333 19.5035 4.75732 19.0719 4.75732C18.6402 4.75732 18.2903 5.11333 18.2903 5.55248C18.2903 5.99163 18.6402 6.34763 19.0719 6.34763Z" fill="#333333"/>
</svg>
