<svg width="26" height="24" viewBox="0 0 26 24" fill="none" xmlns="http://www.w3.org/2000/svg">
<path d="M25.001 9.27532V9.03472V8.8663C24.6698 7.09154 23.8312 5.44983 22.5858 4.13853C21.2445 2.72706 19.5903 1.6477 17.7555 0.986685C16.1247 0.359796 14.3953 0.0258121 12.6474 0.000229142C10.3435 -0.0128774 8.07145 0.53646 6.02988 1.60021C4.24225 2.43337 2.74171 3.77432 1.71684 5.45455C0.691965 7.13477 0.188499 9.07929 0.269712 11.0437C0.451431 12.9859 1.21269 14.8295 2.45544 16.3369C3.69752 17.8276 5.29057 18.9889 7.09256 19.7173C8.20831 20.1449 9.3658 20.4554 10.5462 20.6436H10.6791C11.0172 20.6436 11.1017 20.788 11.1259 20.8241C11.1501 20.9106 11.1501 21.0022 11.1259 21.0887C11.1259 21.1609 11.1259 21.2211 11.1259 21.2812C10.9515 21.8122 10.8978 22.3751 10.9689 22.9293C11.0017 23.2249 11.1433 23.4979 11.3663 23.6956C11.5893 23.8934 11.8779 24.0018 12.1765 24C12.8763 23.9144 13.544 23.6582 14.1207 23.2541H14.1811C15.3887 22.5564 16.5238 21.7504 17.3812 21.1368C19.4504 19.7864 21.3305 18.1682 22.9723 16.3249C24.556 14.3338 25.2852 11.7998 25.001 9.27532ZM7.98617 13.0407H5.84875C5.77217 13.0423 5.69606 13.0285 5.62499 13.0001C5.55392 12.9716 5.48937 12.9292 5.43521 12.8752C5.38105 12.8213 5.33842 12.757 5.30987 12.6862C5.28133 12.6154 5.26746 12.5395 5.26911 12.4633V7.98811C5.26746 7.91183 5.28133 7.83601 5.30987 7.76521C5.33842 7.69441 5.38105 7.6301 5.43521 7.57615C5.48937 7.5222 5.55392 7.47973 5.62499 7.45129C5.69606 7.42285 5.77217 7.40904 5.84875 7.41068C5.92587 7.40908 6.00255 7.42283 6.07427 7.45113C6.146 7.47943 6.21133 7.52171 6.26644 7.57549C6.32155 7.62927 6.36533 7.69347 6.39521 7.76432C6.42509 7.83518 6.44048 7.91126 6.44046 7.98811V11.8738H7.98617C8.1431 11.8738 8.2936 11.9359 8.40457 12.0464C8.51554 12.157 8.57788 12.3069 8.57788 12.4633C8.5779 12.5401 8.56252 12.6162 8.53263 12.687C8.50275 12.7579 8.45897 12.8221 8.40386 12.8759C8.34875 12.9297 8.28342 12.9719 8.2117 13.0002C8.13997 13.0285 8.0633 13.0423 7.98617 13.0407ZM10.2202 12.4512C10.2202 12.6108 10.1566 12.7637 10.0433 12.8765C9.93012 12.9894 9.77654 13.0527 9.6164 13.0527C9.45627 13.0527 9.30269 12.9894 9.18946 12.8765C9.07623 12.7637 9.01261 12.6108 9.01261 12.4512V7.97608C9.01261 7.81656 9.07623 7.66356 9.18946 7.55076C9.30269 7.43796 9.45627 7.37459 9.6164 7.37459C9.77654 7.37459 9.93012 7.43796 10.0433 7.55076C10.1566 7.66356 10.2202 7.81656 10.2202 7.97608V12.4512ZM15.5094 12.4512C15.5078 12.5747 15.4673 12.6945 15.3936 12.7938C15.3199 12.8931 15.2168 12.9668 15.0988 13.0046H14.9177C14.8255 13.0056 14.7344 12.9843 14.6523 12.9423C14.5703 12.9004 14.4997 12.8392 14.4467 12.764L12.3455 9.90088V12.4512C12.3424 12.6055 12.2786 12.7523 12.168 12.8603C12.0574 12.9682 11.9087 13.0287 11.7538 13.0287C11.6747 13.0336 11.5954 13.0223 11.5209 12.9955C11.4463 12.9687 11.3781 12.927 11.3203 12.8728C11.2626 12.8187 11.2166 12.7534 11.1853 12.6809C11.1539 12.6083 11.1378 12.5302 11.138 12.4512V8.10841C11.138 7.9848 11.1763 7.8642 11.2476 7.76303C11.3189 7.66186 11.4198 7.58504 11.5365 7.54301C11.6543 7.50696 11.7804 7.50846 11.8973 7.54728C12.0142 7.5861 12.116 7.6603 12.1886 7.75955L14.3018 10.6467V7.97608C14.3018 7.81656 14.3654 7.66356 14.4787 7.55076C14.5919 7.43796 14.7455 7.37459 14.9056 7.37459C15.0658 7.37459 15.2193 7.43796 15.3326 7.55076C15.4458 7.66356 15.5094 7.81656 15.5094 7.97608V12.4512ZM19.7722 12.9324H16.874C16.7974 12.9341 16.7213 12.9202 16.6502 12.8918C16.5792 12.8634 16.5146 12.8209 16.4604 12.767C16.4063 12.713 16.3637 12.6487 16.3351 12.5779C16.3066 12.5071 16.2927 12.4313 16.2943 12.355V7.87985C16.2943 7.7267 16.3554 7.57983 16.4641 7.47154C16.5728 7.36324 16.7202 7.30241 16.874 7.30241H19.6756C19.8357 7.30241 19.9893 7.36578 20.1025 7.47858C20.2157 7.59138 20.2794 7.74438 20.2794 7.9039C20.2794 8.06343 20.2157 8.21642 20.1025 8.32923C19.9893 8.44203 19.8357 8.5054 19.6756 8.5054H17.4536V9.57607H19.265C19.4187 9.57607 19.5662 9.63691 19.6749 9.7452C19.7836 9.85349 19.8446 10.0004 19.8446 10.1535C19.8447 10.3078 19.784 10.4559 19.6756 10.5661C19.5672 10.6763 19.4198 10.7398 19.265 10.743H17.4536V11.8136H19.7722C19.9323 11.8136 20.0859 11.877 20.1991 11.9898C20.3124 12.1026 20.376 12.2556 20.376 12.4151C20.376 12.5747 20.3124 12.7277 20.1991 12.8405C20.0859 12.9533 19.9323 13.0166 19.7722 13.0166V12.9324Z" fill="#333333"/>
</svg>
