<svg width="26" height="24" viewBox="0 0 26 24" fill="none" xmlns="http://www.w3.org/2000/svg">
<path d="M25.2612 14.7144V24H19.878V15.3363C19.878 13.1599 19.0994 11.6746 17.1508 11.6746C15.6634 11.6746 14.7782 12.6756 14.3887 13.6438C14.2467 13.99 14.2102 14.4718 14.2102 14.9564V24H8.82515C8.82515 24 8.89768 9.3265 8.82515 7.80621H14.2097V10.1016C14.1987 10.1188 14.1845 10.1373 14.1743 10.1539H14.2097V10.1016C14.925 8.99978 16.2026 7.42577 19.0623 7.42577C22.6052 7.42572 25.2612 9.74027 25.2612 14.7144ZM3.19219 0C1.34998 0 0.14502 1.20834 0.14502 2.79736C0.14502 4.35175 1.31512 5.59676 3.12071 5.59676H3.15668C5.03457 5.59676 6.20245 4.35198 6.20245 2.79736C6.16706 1.20834 5.03457 0 3.19219 0ZM0.464843 24H5.84783V7.80621H0.464843V24Z" fill="#333333"/>
</svg>
