<svg width="9" height="13" viewBox="0 0 9 13" fill="none" xmlns="http://www.w3.org/2000/svg">
<path d="M4.471 12.0015C3.325 12.0015 2.24102 11.7609 1.41869 11.3241C0.503196 10.8373 0 10.1564 0 9.4044C0 8.40707 0.884911 7.54586 2.36732 7.10108C2.47489 7.07138 2.58922 7.08734 2.68575 7.14553C2.78228 7.20371 2.85332 7.29948 2.88361 7.41227C2.9139 7.52506 2.90102 7.64588 2.84775 7.74877C2.79447 7.85166 2.70504 7.92843 2.59867 7.96258C1.53536 8.28169 0.848382 8.84767 0.848382 9.4044C0.848382 10.2104 2.3356 11.1059 4.46986 11.1059C6.60413 11.1059 8.0922 10.2104 8.0922 9.4044C8.0922 8.84767 7.40522 8.28169 6.34191 7.96258C6.28825 7.94649 6.23812 7.91941 6.19439 7.8829C6.15066 7.84639 6.11417 7.80115 6.08702 7.74977C6.03219 7.64601 6.01871 7.52353 6.04954 7.40929C6.08037 7.29505 6.15298 7.19839 6.25141 7.14059C6.34984 7.08279 6.46602 7.06858 6.5744 7.10108C8.0568 7.54586 8.94171 8.40707 8.94171 9.4044C8.94171 10.1564 8.43795 10.8373 7.52302 11.3241C6.70069 11.7609 5.61671 12.0015 4.471 12.0015Z" fill="#333333"/>
<path d="M4.55301 0C2.6674 0 1.13794 1.59888 1.13794 3.57006C1.13794 6.24761 4.55301 10.2002 4.55301 10.2002C4.55301 10.2002 7.96808 6.24761 7.96808 3.57006C7.96808 1.59888 6.43862 0 4.55301 0ZM4.55301 4.84508C3.87975 4.84508 3.33334 4.27387 3.33334 3.57006C3.33334 2.86625 3.87975 2.29504 4.55301 2.29504C5.22627 2.29504 5.77268 2.86625 5.77268 3.57006C5.77268 4.27387 5.22627 4.84508 4.55301 4.84508Z" fill="#333333"/>
</svg>
