<svg width="240" height="48" viewBox="0 0 240 48" fill="none" xmlns="http://www.w3.org/2000/svg">
<path d="M9.57789 37.0385C7.78351 37.0385 6.17554 36.7472 4.75399 36.1646C3.33245 35.582 2.19057 34.7198 1.32832 33.5779C0.489381 32.436 0.0466081 31.0611 0 29.4531H6.36196C6.45519 30.3619 6.76979 31.0611 7.30576 31.5504C7.84173 32.0165 8.54085 32.2496 9.40311 32.2496C10.2886 32.2496 10.9878 32.0515 11.5005 31.6553C12.0132 31.2358 12.2695 30.6649 12.2695 29.9425C12.2695 29.3366 12.0598 28.8355 11.6403 28.4394C11.2441 28.0432 10.7431 27.7169 10.1372 27.4606C9.55457 27.2043 8.71563 26.913 7.62036 26.5867C6.03572 26.0973 4.74234 25.608 3.74027 25.1186C2.7382 24.6292 1.87596 23.9068 1.15354 22.9513C0.43112 21.9959 0.0699116 20.7491 0.0699116 19.211C0.0699116 16.9273 0.897201 15.1445 2.55177 13.8628C4.20635 12.5578 6.36196 11.9053 9.0186 11.9053C11.7218 11.9053 13.9008 12.5578 15.5553 13.8628C17.2099 15.1445 18.0955 16.9389 18.212 19.246H11.7451C11.6986 18.4537 11.4072 17.8361 10.8713 17.3933C10.3353 16.9273 9.6478 16.6942 8.80886 16.6942C8.08642 16.6942 7.50386 16.8923 7.06107 17.2885C6.61828 17.6614 6.39691 18.209 6.39691 18.9314C6.39691 19.7238 6.76979 20.3413 7.5155 20.7841C8.2612 21.2269 9.42643 21.7045 11.0111 22.2172C12.5957 22.7532 13.8775 23.2659 14.8562 23.7553C15.8583 24.2447 16.7205 24.9554 17.4429 25.8876C18.1654 26.8198 18.5266 28.0199 18.5266 29.4881C18.5266 30.8863 18.1654 32.1563 17.4429 33.2982C16.7438 34.4401 15.7185 35.349 14.3668 36.0248C13.0152 36.7006 11.4189 37.0385 9.57789 37.0385ZM41.4658 17.2885V36.7938H35.4883V34.1372C34.8824 34.9994 34.0551 35.6986 33.0065 36.2345C31.9811 36.7472 30.8392 37.0035 29.5808 37.0035C28.0893 37.0035 26.7727 36.6773 25.6308 36.0248C24.4889 35.349 23.6034 34.3819 22.9742 33.1235C22.3449 31.865 22.0303 30.3853 22.0303 28.6841V17.2885H27.9728V27.8801C27.9728 29.1851 28.3108 30.1988 28.9865 30.9212C29.6623 31.6437 30.5712 32.0049 31.7131 32.0049C32.8783 32.0049 33.7988 31.6437 34.4746 30.9212C35.1504 30.1988 35.4883 29.1851 35.4883 27.8801V17.2885H41.4658ZM53.6943 37.0735C51.9931 37.0735 50.4784 36.7822 49.15 36.1996C47.8217 35.617 46.773 34.8247 46.004 33.8226C45.235 32.7972 44.8039 31.6553 44.7106 30.3969H50.6182C50.6881 31.0727 51.0027 31.6204 51.562 32.0398C52.1213 32.4593 52.8088 32.669 53.6244 32.669C54.3699 32.669 54.9412 32.5292 55.3372 32.2496C55.7567 31.9466 55.9664 31.5621 55.9664 31.096C55.9664 30.5367 55.6753 30.1289 55.0925 29.8726C54.5097 29.5929 53.5661 29.29 52.2611 28.9637C50.8629 28.6375 49.6977 28.2996 48.7655 27.95C47.8334 27.5771 47.0294 27.0062 46.3536 26.2372C45.6778 25.4448 45.3399 24.3845 45.3399 23.0562C45.3399 21.9376 45.6428 20.9239 46.2487 20.015C46.8779 19.0829 47.7868 18.3488 48.9753 17.8128C50.1871 17.2768 51.6203 17.0088 53.2748 17.0088C55.7217 17.0088 57.6443 17.6147 59.0425 18.8265C60.4642 20.0384 61.2797 21.6463 61.4894 23.6504H55.9664C55.873 22.9746 55.5704 22.4386 55.0576 22.0425C54.5682 21.6463 53.9157 21.4482 53.1 21.4482C52.4009 21.4482 51.865 21.588 51.4921 21.8677C51.1192 22.124 50.9328 22.4853 50.9328 22.9513C50.9328 23.5106 51.2241 23.9301 51.8067 24.2097C52.4126 24.4894 53.3447 24.769 54.6031 25.0487C56.0478 25.4215 57.2248 25.7944 58.1337 26.1673C59.0425 26.5168 59.835 27.0994 60.5107 27.915C61.2098 28.7074 61.5708 29.7793 61.5943 31.131C61.5943 32.2729 61.2682 33.2982 60.6155 34.2071C59.9863 35.0926 59.066 35.7917 57.854 36.3044C56.6655 36.8171 55.2788 37.0735 53.6943 37.0735ZM84.5122 17.2885V36.7938H78.5348V34.1372C77.9285 34.9994 77.1016 35.6986 76.0529 36.2345C75.0272 36.7472 73.8856 37.0035 72.6272 37.0035C71.1356 37.0035 69.8187 36.6773 68.6772 36.0248C67.5351 35.349 66.6498 34.3819 66.0206 33.1235C65.3914 31.865 65.0768 30.3853 65.0768 28.6841V17.2885H71.0193V27.8801C71.0193 29.1851 71.3568 30.1988 72.033 30.9212C72.7086 31.6437 73.6175 32.0049 74.7595 32.0049C75.9245 32.0049 76.8449 31.6437 77.521 30.9212C78.1967 30.1988 78.5348 29.1851 78.5348 27.8801V17.2885H84.5122ZM100.691 17.0787C102.974 17.0787 104.792 17.8245 106.144 19.3159C107.519 20.7841 108.206 22.8115 108.206 25.3982V36.7938H102.264V26.2022C102.264 24.8972 101.926 23.8835 101.25 23.1611C100.574 22.4386 99.665 22.0774 98.5235 22.0774C97.3814 22.0774 96.4725 22.4386 95.7969 23.1611C95.1207 23.8835 94.7832 24.8972 94.7832 26.2022V36.7938H88.8058V17.2885H94.7832V19.8752C95.3889 19.0129 96.2044 18.3372 97.2301 17.8478C98.2553 17.3351 99.4088 17.0787 100.691 17.0787Z" fill="#1A202C"/>
<path d="M127.741 12.2548V28.9637C127.741 31.5504 127.006 33.5429 125.538 34.9411C124.093 36.3394 122.136 37.0385 119.666 37.0385C117.079 37.0385 115.005 36.3044 113.444 34.8363C111.882 33.3681 111.102 31.2824 111.102 28.5792H117.044C117.044 29.6045 117.254 30.3853 117.673 30.9212C118.093 31.4339 118.698 31.6903 119.491 31.6903C120.213 31.6903 120.772 31.4572 121.169 30.9911C121.565 30.5251 121.763 29.8492 121.763 28.9637V12.2548H127.741ZM131.38 27.0062C131.38 25.0021 131.753 23.2426 132.499 21.7279C133.268 20.2131 134.305 19.0479 135.61 18.2323C136.915 17.4167 138.371 17.0088 139.979 17.0088C141.354 17.0088 142.554 17.2885 143.58 17.8478C144.629 18.4071 145.433 19.1411 145.992 20.05V17.2885H151.969V36.7938H145.992V34.0323C145.409 34.9411 144.594 35.6752 143.545 36.2345C142.519 36.7938 141.319 37.0735 139.944 37.0735C138.359 37.0735 136.915 36.6656 135.61 35.85C134.305 35.0111 133.268 33.8342 132.499 32.3195C131.753 30.7814 131.38 29.0103 131.38 27.0062ZM145.992 27.0411C145.992 25.5497 145.572 24.3729 144.733 23.5106C143.917 22.6483 142.916 22.2172 141.727 22.2172C140.539 22.2172 139.525 22.6483 138.686 23.5106C137.87 24.3495 137.463 25.5147 137.463 27.0062C137.463 28.4976 137.87 29.6861 138.686 30.5717C139.525 31.4339 140.539 31.865 141.727 31.865C142.916 31.865 143.917 31.4339 144.733 30.5717C145.572 29.7094 145.992 28.5326 145.992 27.0411ZM155.105 27.0062C155.105 25.0021 155.478 23.2426 156.223 21.7279C156.993 20.2131 158.03 19.0479 159.335 18.2323C160.639 17.4167 162.096 17.0088 163.704 17.0088C164.986 17.0088 166.151 17.2768 167.2 17.8128C168.272 18.3488 169.111 19.0712 169.716 19.9801V10.9265H175.694V36.7938H169.716V33.9973C169.157 34.9295 168.353 35.6752 167.305 36.2345C166.279 36.7938 165.079 37.0735 163.704 37.0735C162.096 37.0735 160.639 36.6656 159.335 35.85C158.03 35.0111 156.993 33.8342 156.223 32.3195C155.478 30.7814 155.105 29.0103 155.105 27.0062ZM169.716 27.0411C169.716 25.5497 169.297 24.3729 168.458 23.5106C167.643 22.6483 166.64 22.2172 165.452 22.2172C164.263 22.2172 163.25 22.6483 162.411 23.5106C161.595 24.3495 161.187 25.5147 161.187 27.0062C161.187 28.4976 161.595 29.6861 162.411 30.5717C163.25 31.4339 164.263 31.865 165.452 31.865C166.64 31.865 167.643 31.4339 168.458 30.5717C169.297 29.7094 169.716 28.5326 169.716 27.0411ZM208.018 17.2885L202.74 36.7938H196.133L193.057 24.1398L189.876 36.7938H183.304L177.991 17.2885H183.969L186.73 31.2358L190.016 17.2885H196.343L199.664 31.1659L202.39 17.2885H208.018ZM209.109 27.0062C209.109 25.0021 209.482 23.2426 210.227 21.7279C210.997 20.2131 212.034 19.0479 213.339 18.2323C214.643 17.4167 216.1 17.0088 217.708 17.0088C219.083 17.0088 220.283 17.2885 221.308 17.8478C222.357 18.4071 223.161 19.1411 223.72 20.05V17.2885H229.698V36.7938H223.72V34.0323C223.138 34.9411 222.322 35.6752 221.273 36.2345C220.248 36.7938 219.048 37.0735 217.673 37.0735C216.089 37.0735 214.643 36.6656 213.339 35.85C212.034 35.0111 210.997 33.8342 210.227 32.3195C209.482 30.7814 209.109 29.0103 209.109 27.0062ZM223.72 27.0411C223.72 25.5497 223.301 24.3729 222.462 23.5106C221.647 22.6483 220.644 22.2172 219.456 22.2172C218.267 22.2172 217.254 22.6483 216.415 23.5106C215.599 24.3495 215.191 25.5147 215.191 27.0062C215.191 28.4976 215.599 29.6861 216.415 30.5717C217.254 31.4339 218.267 31.865 219.456 31.865C220.644 31.865 221.647 31.4339 222.462 30.5717C223.301 29.7094 223.72 28.5326 223.72 27.0411ZM240 10.9265V36.7938H234.023V10.9265H240Z" fill="#5038BC"/>
</svg>
