<svg width="25" height="24" viewBox="0 0 25 24" fill="none" xmlns="http://www.w3.org/2000/svg">
<path d="M0.122192 0V24H24.1222V0H0.122192ZM20.0602 5.686L18.7732 6.92C18.7186 6.96155 18.6764 7.01725 18.6512 7.08106C18.626 7.14487 18.6187 7.21436 18.6302 7.282V16.349C18.6189 16.4165 18.6263 16.4858 18.6515 16.5494C18.6767 16.613 18.7188 16.6685 18.7732 16.71L20.0302 17.944V18.215H13.7082V17.945L15.0102 16.68C15.1382 16.552 15.1382 16.515 15.1382 16.32V8.99L11.5182 18.185H11.0282L6.81219 8.99V15.153C6.79485 15.2808 6.80681 15.4109 6.84718 15.5334C6.88755 15.6559 6.95526 15.7676 7.04519 15.86L8.73919 17.914V18.185H3.93719V17.915L5.63219 15.86C5.72139 15.7675 5.78759 15.6553 5.82546 15.5325C5.86333 15.4097 5.8718 15.2797 5.85019 15.153V8.027C5.86018 7.92938 5.84699 7.83079 5.81172 7.73922C5.77645 7.64765 5.72008 7.56569 5.64719 7.5L4.14119 5.686V5.416H8.81519L12.4282 13.339L15.6042 5.415H20.0602V5.686Z" fill="#333333"/>
</svg>
