<svg width="20" height="20" viewBox="0 0 20 20" fill="none" xmlns="http://www.w3.org/2000/svg">
<path d="M5.83333 2.5C3.9925 2.5 2.5 3.9925 2.5 5.83333V7.5C2.5 9.34083 3.9925 10.8333 5.83333 10.8333H14.1667C16.0075 10.8333 17.5 9.34083 17.5 7.5V5.83333C17.5 3.9925 16.0075 2.5 14.1667 2.5H5.83333ZM5.83333 5.83333H10C10.46 5.83333 10.8333 6.20667 10.8333 6.66667C10.8333 7.12667 10.46 7.5 10 7.5H5.83333C5.37333 7.5 5 7.12667 5 6.66667C5 6.20667 5.37333 5.83333 5.83333 5.83333ZM12.9167 5.83333H14.5833C14.965 5.83333 15.1075 6.05833 14.8958 6.32833L14.1408 7.29167C13.9292 7.56167 13.5708 7.56167 13.3592 7.29167L12.6042 6.32833C12.3925 6.05833 12.535 5.83333 12.9167 5.83333ZM5 12.5C3.61917 12.5 2.5 13.6192 2.5 15C2.5 16.3808 3.61917 17.5 5 17.5H15C16.3808 17.5 17.5 16.3808 17.5 15C17.5 13.6192 16.3808 12.5 15 12.5H5ZM5 14.1667H15C15.46 14.1667 15.8333 14.54 15.8333 15C15.8333 15.46 15.46 15.8333 15 15.8333H5C4.54 15.8333 4.16667 15.46 4.16667 15C4.16667 14.54 4.54 14.1667 5 14.1667Z" fill="#45349F"/>
</svg>
