<svg width="24" height="24" viewBox="0 0 24 24" fill="none" xmlns="http://www.w3.org/2000/svg">
<path d="M5.93799 6C3.85799 6 2.193 7.596 2 9.625C2.506 9.798 9.28198 12.062 9.28198 12.062C10.717 12.541 13.159 12.541 14.594 12.062C14.594 12.062 19.776 10.332 21.907 9.625C21.722 7.588 20.023 6 17.938 6C15.947 6 10.7159 6 5.93799 6Z" fill="white"/>
<path opacity="0.4" fill-rule="evenodd" clip-rule="evenodd" d="M9 5.99794C9 4.89394 9.89543 3.99897 11 3.99897H13C14.1046 3.99897 15 4.89394 15 5.99794H17C17 3.78994 15.2091 2 13 2H11C8.79086 2 7 3.78994 7 5.99794H9ZM2 16.0021V11.7233L8.71899 13.9721C10.564 14.5868 13.436 14.5868 15.281 13.9721L22 11.7233V16.0021C22 18.2099 20.209 20 18 20H6C3.791 20 2 18.2099 2 16.0021Z" fill="white"/>
</svg>
