<svg width="117" height="16" viewBox="0 0 117 16" fill="none" xmlns="http://www.w3.org/2000/svg">
<path d="M7.4 15L4.48 9.7H3.66V15H0.24V0.96H5.98C7.08667 0.96 8.02667 1.15333 8.8 1.54C9.58667 1.92667 10.1733 2.46 10.56 3.14C10.9467 3.80667 11.14 4.55333 11.14 5.38C11.14 6.31333 10.8733 7.14667 10.34 7.88C9.82 8.61333 9.04667 9.13333 8.02 9.44L11.26 15H7.4ZM3.66 7.28H5.78C6.40667 7.28 6.87333 7.12667 7.18 6.82C7.5 6.51333 7.66 6.08 7.66 5.52C7.66 4.98667 7.5 4.56667 7.18 4.26C6.87333 3.95333 6.40667 3.8 5.78 3.8H3.66V7.28ZM16.7069 0.96V15H13.2869V0.96H16.7069ZM24.2653 15.14C23.2386 15.14 22.3186 14.9733 21.5053 14.64C20.692 14.3067 20.0386 13.8133 19.5453 13.16C19.0653 12.5067 18.812 11.72 18.7853 10.8H22.4253C22.4786 11.32 22.6586 11.72 22.9653 12C23.272 12.2667 23.672 12.4 24.1653 12.4C24.672 12.4 25.072 12.2867 25.3653 12.06C25.6586 11.82 25.8053 11.4933 25.8053 11.08C25.8053 10.7333 25.6853 10.4467 25.4453 10.22C25.2186 9.99333 24.932 9.80667 24.5853 9.66C24.252 9.51333 23.772 9.34667 23.1453 9.16C22.2386 8.88 21.4986 8.6 20.9253 8.32C20.352 8.04 19.8586 7.62667 19.4453 7.08C19.032 6.53333 18.8253 5.82 18.8253 4.94C18.8253 3.63333 19.2986 2.61333 20.2453 1.88C21.192 1.13333 22.4253 0.76 23.9453 0.76C25.492 0.76 26.7386 1.13333 27.6853 1.88C28.632 2.61333 29.1386 3.64 29.2053 4.96H25.5053C25.4786 4.50667 25.312 4.15333 25.0053 3.9C24.6986 3.63333 24.3053 3.5 23.8253 3.5C23.412 3.5 23.0786 3.61333 22.8253 3.84C22.572 4.05333 22.4453 4.36667 22.4453 4.78C22.4453 5.23333 22.6586 5.58667 23.0853 5.84C23.512 6.09333 24.1786 6.36667 25.0853 6.66C25.992 6.96667 26.7253 7.26 27.2853 7.54C27.8586 7.82 28.352 8.22667 28.7653 8.76C29.1786 9.29333 29.3853 9.98 29.3853 10.82C29.3853 11.62 29.1786 12.3467 28.7653 13C28.3653 13.6533 27.7786 14.1733 27.0053 14.56C26.232 14.9467 25.3186 15.14 24.2653 15.14ZM41.59 0.96V3.7H37.87V15H34.45V3.7H30.73V0.96H41.59ZM46.7264 3.7V6.54H51.3064V9.18H46.7264V12.26H51.9064V15H43.3064V0.96H51.9064V3.7H46.7264ZM62.2667 15L57.5467 8.8V15H54.1267V0.96H57.5467V7.12L62.2267 0.96H66.2467L60.8067 7.84L66.4467 15H62.2667ZM69.672 15.16C69.072 15.16 68.5787 14.9867 68.192 14.64C67.8187 14.28 67.632 13.84 67.632 13.32C67.632 12.7867 67.8187 12.34 68.192 11.98C68.5787 11.62 69.072 11.44 69.672 11.44C70.2587 11.44 70.7387 11.62 71.112 11.98C71.4987 12.34 71.692 12.7867 71.692 13.32C71.692 13.84 71.4987 14.28 71.112 14.64C70.7387 14.9867 70.2587 15.16 69.672 15.16Z" fill="#333333"/>
<path d="M77.1366 12.36H81.6166V15H73.7166V0.96H77.1366V12.36ZM86.6678 0.96V15H83.2478V0.96H86.6678ZM101.706 15H98.2863L92.5663 6.34V15H89.1463V0.96H92.5663L98.2863 9.66V0.96H101.706V15ZM112.325 15L107.605 8.8V15H104.185V0.96H107.605V7.12L112.285 0.96H116.305L110.865 7.84L116.505 15H112.325Z" fill="#5038BC"/>
</svg>
