<svg width="30" height="24" viewBox="0 0 30 24" fill="none" xmlns="http://www.w3.org/2000/svg">
<path d="M29.1449 2.82176C28.0672 3.31126 26.925 3.63232 25.7559 3.7744C26.9879 3.03057 27.9079 1.83937 28.3367 0.432842C27.1857 1.13134 25.9301 1.62666 24.6215 1.89844C23.7347 0.931365 22.5653 0.291989 21.2928 0.0785549C20.0204 -0.134879 18.7153 0.0894372 17.5782 0.717036C16.4411 1.34464 15.5348 2.34079 14.9986 3.55244C14.4624 4.76408 14.326 6.12418 14.6104 7.42373C12.2762 7.30275 9.9928 6.67515 7.90882 5.58178C5.82483 4.4884 3.98694 2.95376 2.51475 1.0777C1.99821 2.01057 1.7246 3.06597 1.72067 4.1408C1.71996 5.13829 1.95778 6.12051 2.41298 7.00009C2.86818 7.87967 3.52664 8.62935 4.3298 9.18244C3.39999 9.16175 2.48936 8.90506 1.67813 8.43499V8.50827C1.6768 9.90732 2.1433 11.2639 2.99863 12.3482C3.85397 13.4326 5.04559 14.1781 6.37173 14.4586C5.85238 14.5906 5.31819 14.6498 4.78356 14.6344C4.42982 14.6683 4.0738 14.6683 3.72006 14.6344C4.10065 15.8378 4.83263 16.8898 5.81533 17.6457C6.79803 18.4015 7.98317 18.8241 9.20774 18.8554C7.12391 20.5005 4.56967 21.3822 1.94755 21.3615C1.47387 21.3673 1.0003 21.3429 0.529541 21.2882C3.21419 23.0729 6.34192 24.0147 9.53389 23.9996C11.7298 24.0152 13.9069 23.5796 15.9386 22.7183C17.9704 21.8569 19.8163 20.5868 21.3691 18.9819C22.9219 17.377 24.1507 15.4692 24.9841 13.3693C25.8175 11.2693 26.2389 9.01921 26.2238 6.74955C26.2238 6.48575 26.2238 6.22194 26.2238 5.97279C27.3725 5.11205 28.362 4.0447 29.1449 2.82176Z" fill="#333333"/>
</svg>
