<svg width="240" height="48" viewBox="0 0 240 48" fill="none" xmlns="http://www.w3.org/2000/svg">
<mask id="mask0_278_30649" style="mask-type:luminance" maskUnits="userSpaceOnUse" x="0" y="5" width="55" height="38">
<path d="M54.3639 5.09082H0V42.9092H54.3639V5.09082Z" fill="white"/>
</mask>
<g mask="url(#mask0_278_30649)">
<path d="M36.8897 23.5357C36.8897 13.3489 28.6317 5.09082 18.4449 5.09082C8.25804 5.09082 0 13.3489 0 23.5357V24.4643C0 34.6511 8.25804 42.9092 18.4449 42.9092C28.6317 42.9092 36.8897 34.6511 36.8897 24.4643V23.5357Z" fill="#64E6FB"/>
<path d="M1.63965 42.9091L3.48413 34.5049L9.0176 39.7576L1.63965 42.9091Z" fill="#64E6FB" stroke="#64E6FB" stroke-linejoin="round"/>
<path d="M17.4741 23.5357C17.4741 13.3489 25.7321 5.09082 35.9189 5.09082C46.1057 5.09082 54.3638 13.3489 54.3638 23.5357V24.4643C54.3638 34.6511 46.1057 42.9092 35.9189 42.9092C25.7321 42.9092 17.4741 34.6511 17.4741 24.4643V23.5357Z" fill="#5038BC"/>
<path d="M52.7243 42.9091L50.8797 34.5049L45.3462 39.7576L52.7243 42.9091Z" fill="#5038BC" stroke="#5038BC" stroke-linejoin="round"/>
<path d="M26.6688 19.0239C26.4282 19.0239 26.2358 19.2996 26.2344 19.6421L26.2114 25.1764C26.2093 25.5189 26.4053 25.7971 26.6461 25.7948L30.7617 25.7532C31.1207 26.0011 30.6187 27.6053 29.3052 28.2232C28.1898 28.7479 29.2542 29.7941 29.2 29.9713C31.0328 29.5631 31.7169 28.9188 32.1905 28.6085C32.9429 28.0502 34.1157 26.5923 34.4083 25.5073C34.4514 25.4114 34.4398 25.2993 34.4402 25.1764L34.4632 19.6421C34.4651 19.2996 34.2694 19.0239 34.0285 19.0239L26.6688 19.0239Z" fill="#FFD668"/>
<path d="M37.8324 19.0239C37.5918 19.0239 37.3994 19.2996 37.3979 19.6421L37.375 25.1764C37.3729 25.5189 37.5688 25.7971 37.8097 25.7948L41.9253 25.7532C42.2846 26.0011 41.7823 27.6053 40.4688 28.2232C39.3534 28.7479 40.4177 29.7941 40.3636 29.9713C42.1964 29.5631 42.8804 28.9188 43.3541 28.6085C44.1065 28.0502 45.2793 26.5923 45.5719 25.5073C45.6149 25.4114 45.6034 25.2993 45.6038 25.1764L45.6268 19.6421C45.6286 19.2996 45.4329 19.0239 45.1921 19.0239L37.8324 19.0239Z" fill="#FFD668"/>
</g>
<path d="M75.2251 26.4534C75.2251 32.8731 79.4277 36.0499 84.8215 36.0499C90.1823 36.0499 94.6827 32.8731 94.6827 26.4534V12.5883H89.0241V26.4865C89.0241 29.2331 87.6012 30.8215 84.9208 30.8215C82.2404 30.8215 80.8837 29.2331 80.8837 26.4865V12.5883H75.2251V26.4534ZM98.6562 35.8182H104.315V11.3308H98.6562V35.8182ZM107.29 26.5527C107.29 32.3767 110.897 36.0829 115.398 36.0829C118.144 36.0829 120.097 34.8255 121.122 33.204V35.8182H126.781V17.3534H121.122V19.9676C120.13 18.3461 118.177 17.0887 115.431 17.0887C110.897 17.0887 107.29 20.7287 107.29 26.5527ZM121.122 26.5858C121.122 29.5309 119.236 31.1524 117.085 31.1524C114.967 31.1524 113.048 29.4978 113.048 26.5527C113.048 23.6076 114.967 22.0192 117.085 22.0192C119.236 22.0192 121.122 23.6407 121.122 26.5858ZM145.865 30.4575C145.766 23.5745 135.772 25.6593 135.772 22.7141C135.772 21.8207 136.5 21.2912 137.824 21.2912C139.412 21.2912 140.372 22.1185 140.537 23.376H145.766C145.402 19.7359 142.755 17.0887 137.989 17.0887C133.158 17.0887 130.478 19.6698 130.478 22.8134C130.478 29.5971 140.537 27.4462 140.537 30.4244C140.537 31.2516 139.776 31.9135 138.32 31.9135C136.765 31.9135 135.607 31.0531 135.475 29.7625H129.882C130.147 33.3364 133.456 36.0829 138.387 36.0829C143.019 36.0829 145.865 33.6673 145.865 30.4575Z" fill="#333333"/>
<path d="M162.795 35.8182H169.711L160.38 23.9716L169.38 12.5883H162.729L154.986 22.7803V12.5883H149.327V35.8182H154.986V25.56L162.795 35.8182ZM180.541 21.6221C182.427 21.6221 184.015 22.7803 184.015 24.7989H176.934C177.265 22.7472 178.688 21.6221 180.541 21.6221ZM189.376 29.6964H183.354C182.89 30.6891 181.997 31.4833 180.408 31.4833C178.588 31.4833 177.099 30.3582 176.901 27.9425H189.707C189.773 27.38 189.806 26.8174 189.806 26.288C189.806 20.6625 186.001 17.0887 180.607 17.0887C175.114 17.0887 171.275 20.7287 171.275 26.5858C171.275 32.4429 175.18 36.0829 180.607 36.0829C185.207 36.0829 188.483 33.3033 189.376 29.6964ZM192.792 35.8182H198.45V11.3308H192.792V35.8182ZM201.426 26.5527C201.426 32.3767 205.033 36.0829 209.533 36.0829C212.28 36.0829 214.232 34.8255 215.258 33.204V35.8182H220.916V17.3534H215.258V19.9676C214.265 18.3461 212.313 17.0887 209.566 17.0887C205.033 17.0887 201.426 20.7287 201.426 26.5527ZM215.258 26.5858C215.258 29.5309 213.372 31.1524 211.221 31.1524C209.103 31.1524 207.184 29.4978 207.184 26.5527C207.184 23.6076 209.103 22.0192 211.221 22.0192C213.372 22.0192 215.258 23.6407 215.258 26.5858ZM240 30.4575C239.901 23.5745 229.907 25.6593 229.907 22.7141C229.907 21.8207 230.635 21.2912 231.959 21.2912C233.548 21.2912 234.507 22.1185 234.673 23.376H239.901C239.537 19.7359 236.889 17.0887 232.125 17.0887C227.293 17.0887 224.613 19.6698 224.613 22.8134C224.613 29.5971 234.673 27.4462 234.673 30.4244C234.673 31.2516 233.911 31.9135 232.455 31.9135C230.9 31.9135 229.742 31.0531 229.61 29.7625H224.017C224.282 33.3364 227.591 36.0829 232.522 36.0829C237.154 36.0829 240 33.6673 240 30.4575Z" fill="#5038BC"/>
</svg>
