<svg width="20" height="20" viewBox="0 0 20 20" fill="none" xmlns="http://www.w3.org/2000/svg">
<g id="icon">
<path id="primary" d="M10.0001 2.5C5.41818 2.5 1.66677 5.83351 1.66677 9.99852C1.66677 11.3508 2.07019 12.6605 2.8126 13.7994C2.93127 13.9819 3.0341 14.3943 2.96885 14.7892C2.90135 15.1975 2.68835 15.5966 2.26577 15.8307C2.13419 15.904 1.67061 16.1073 1.66677 16.6639C1.66286 17.2204 2.14227 17.4945 2.5001 17.497C3.3461 17.5037 8.54443 17.497 10.0001 17.497C14.582 17.497 18.3334 14.1635 18.3334 9.99852C18.3334 5.83351 14.582 2.5 10.0001 2.5ZM6.66676 7.49901H13.3334C13.7937 7.49901 14.1668 7.87227 14.1668 8.33218C14.1668 8.79209 13.7937 9.16535 13.3334 9.16535H6.66676C6.20652 9.16535 5.83343 8.79209 5.83343 8.33218C5.83343 7.87227 6.20652 7.49901 6.66676 7.49901ZM6.66676 10.8317H10.8334C11.2937 10.8317 11.6668 11.2049 11.6668 11.6649C11.6668 12.1248 11.2937 12.498 10.8334 12.498H6.66676C6.20652 12.498 5.83343 12.1248 5.83343 11.6649C5.83343 11.2049 6.20652 10.8317 6.66676 10.8317Z" fill="#5038BC"/>
</g>
</svg>
