<svg width="402" height="134" viewBox="0 0 402 134" fill="none" xmlns="http://www.w3.org/2000/svg">
<rect width="134" height="134" transform="matrix(1 0 0 -1 0 134)" fill="#5038BC"/>
<rect width="74" height="74" transform="matrix(1 0 0 -1 30 104)" fill="#64E6FB"/>
<g clip-path="url(#clip0_489_4057)">
<rect width="134" height="67" transform="matrix(-1 0 0 1 402 0)" fill="#5038BC"/>
<path d="M402 0L268 134L268 -5.85733e-06L402 0Z" fill="#C424A3"/>
</g>
<g clip-path="url(#clip1_489_4057)">
<circle cx="67" cy="67" r="49" transform="matrix(1 0 0 -1 134 134)" stroke="#FFD668" stroke-width="36"/>
</g>
<defs>
<clipPath id="clip0_489_4057">
<rect width="134" height="134" fill="white" transform="matrix(-1 0 0 1 402 0)"/>
</clipPath>
<clipPath id="clip1_489_4057">
<rect width="134" height="134" fill="white" transform="matrix(1 0 0 -1 134 134)"/>
</clipPath>
</defs>
</svg>
