<svg width="67" height="670" viewBox="0 0 67 670" fill="none" xmlns="http://www.w3.org/2000/svg">
<g clip-path="url(#clip0_489_4943)">
<g clip-path="url(#clip1_489_4943)">
<rect x="-0.000244141" y="536" width="134" height="67" transform="rotate(-90 -0.000244141 536)" fill="#64E6FB"/>
<circle cx="-0.000244141" cy="469" r="45" fill="#5038BC"/>
</g>
<g clip-path="url(#clip2_489_4943)">
<circle cx="134" cy="134" r="134" transform="matrix(-1 8.74228e-08 8.74228e-08 1 67 0)" fill="#FFD668"/>
</g>
<g clip-path="url(#clip3_489_4943)">
<path d="M66.9998 670L-67.0002 536L66.9998 536L66.9998 670Z" fill="#FFD668"/>
<path d="M66.9998 536L-67.0002 670L-67.0002 536L66.9998 536Z" fill="#C424A3"/>
</g>
<rect width="134" height="134" transform="matrix(1 0 0 -1 -67 268)" fill="#5038BC"/>
<rect width="74" height="74" transform="matrix(1 0 0 -1 -37 238)" fill="#64E6FB"/>
<g clip-path="url(#clip4_489_4943)">
<path d="M-67.0003 402L66.9998 268L66.9997 402L-67.0003 402Z" fill="#FFD668"/>
<path d="M66.9998 402L-67.0002 268L66.9998 268L66.9998 402Z" fill="#C424A3"/>
</g>
</g>
<defs>
<clipPath id="clip0_489_4943">
<rect width="67" height="670" fill="white" transform="matrix(-1 0 0 -1 67 670)"/>
</clipPath>
<clipPath id="clip1_489_4943">
<rect width="134" height="134" fill="white" transform="translate(-67.0002 536) rotate(-90)"/>
</clipPath>
<clipPath id="clip2_489_4943">
<rect width="134" height="134" fill="white" transform="matrix(-1 8.74228e-08 8.74228e-08 1 67 0)"/>
</clipPath>
<clipPath id="clip3_489_4943">
<rect width="134" height="134" fill="white" transform="matrix(-1 0 0 1 66.9998 536)"/>
</clipPath>
<clipPath id="clip4_489_4943">
<rect width="134" height="134" fill="white" transform="matrix(-1.19249e-08 -1 -1 1.19249e-08 66.9998 402)"/>
</clipPath>
</defs>
</svg>
