<svg width="232" height="348" viewBox="0 0 232 348" fill="none" xmlns="http://www.w3.org/2000/svg">
<g clip-path="url(#clip0_750_514)">
<path d="M1.52588e-05 232L116 116L5.11775e-06 116L1.52588e-05 232Z" fill="#64E6FB"/>
<path d="M-5.07052e-06 116L116 232L116 116L-5.07052e-06 116Z" fill="#5038BC"/>
</g>
<g clip-path="url(#clip1_750_514)">
<path d="M-5.07052e-06 348L116 232L116 348L-5.07052e-06 348Z" fill="#C424A3"/>
<circle cx="38.9552" cy="38.9552" r="38.9552" transform="matrix(1 0 0 -1 19.0449 328.955)" fill="#FFD668"/>
</g>
<g clip-path="url(#clip2_750_514)">
<circle cx="116" cy="116" r="116" transform="matrix(-1 8.74228e-08 8.74228e-08 1 116 0)" fill="#FFD668"/>
</g>
<g clip-path="url(#clip3_750_514)">
<rect x="232" y="348" width="116" height="58" transform="rotate(-180 232 348)" fill="#C424A3"/>
<path d="M232 348L116 232L116 348L232 348Z" fill="#64E6FB"/>
</g>
<defs>
<clipPath id="clip0_750_514">
<rect width="116" height="116" fill="white" transform="translate(0 116)"/>
</clipPath>
<clipPath id="clip1_750_514">
<rect width="116" height="116" fill="white" transform="matrix(1 0 0 -1 0 348)"/>
</clipPath>
<clipPath id="clip2_750_514">
<rect width="116" height="116" fill="white" transform="matrix(-1 8.74228e-08 8.74228e-08 1 116 0)"/>
</clipPath>
<clipPath id="clip3_750_514">
<rect width="116" height="116" fill="white" transform="translate(232 348) rotate(-180)"/>
</clipPath>
</defs>
</svg>
