<svg width="254" height="48" viewBox="0 0 254 48" fill="none" xmlns="http://www.w3.org/2000/svg">
<g clip-path="url(#clip0_489_4430)">
<path d="M8 7L15 0V48H8V7Z" fill="url(#paint0_linear_489_4430)"/>
<path d="M8 7L15 7.86805e-07L33 0L33 7.00001L8 7Z" fill="url(#paint1_linear_489_4430)"/>
<path d="M33 -6.11959e-07L40 7L40 19L33 26L33 -6.11959e-07Z" fill="url(#paint2_linear_489_4430)"/>
<path d="M18 19L18 26L33 26L40 19L18 19Z" fill="url(#paint3_linear_489_4430)"/>
<path d="M35 48L40 43L18 19L15 26L35 48Z" fill="#5038BC"/>
<path d="M64.4 23L61.48 17.7H60.66V23H57.24V8.96H62.98C64.0867 8.96 65.0267 9.15333 65.8 9.54C66.5867 9.92667 67.1733 10.46 67.56 11.14C67.9467 11.8067 68.14 12.5533 68.14 13.38C68.14 14.3133 67.8733 15.1467 67.34 15.88C66.82 16.6133 66.0467 17.1333 65.02 17.44L68.26 23H64.4ZM60.66 15.28H62.78C63.4067 15.28 63.8733 15.1267 64.18 14.82C64.5 14.5133 64.66 14.08 64.66 13.52C64.66 12.9867 64.5 12.5667 64.18 12.26C63.8733 11.9533 63.4067 11.8 62.78 11.8H60.66V15.28ZM73.7069 8.96V23H70.2869V8.96H73.7069ZM81.2653 23.14C80.2386 23.14 79.3186 22.9733 78.5053 22.64C77.692 22.3067 77.0386 21.8133 76.5453 21.16C76.0653 20.5067 75.812 19.72 75.7853 18.8H79.4253C79.4786 19.32 79.6586 19.72 79.9653 20C80.272 20.2667 80.672 20.4 81.1653 20.4C81.672 20.4 82.072 20.2867 82.3653 20.06C82.6586 19.82 82.8053 19.4933 82.8053 19.08C82.8053 18.7333 82.6853 18.4467 82.4453 18.22C82.2186 17.9933 81.932 17.8067 81.5853 17.66C81.252 17.5133 80.772 17.3467 80.1453 17.16C79.2386 16.88 78.4986 16.6 77.9253 16.32C77.352 16.04 76.8586 15.6267 76.4453 15.08C76.032 14.5333 75.8253 13.82 75.8253 12.94C75.8253 11.6333 76.2986 10.6133 77.2453 9.88C78.192 9.13333 79.4253 8.76 80.9453 8.76C82.492 8.76 83.7386 9.13333 84.6853 9.88C85.632 10.6133 86.1386 11.64 86.2053 12.96H82.5053C82.4786 12.5067 82.312 12.1533 82.0053 11.9C81.6986 11.6333 81.3053 11.5 80.8253 11.5C80.412 11.5 80.0786 11.6133 79.8253 11.84C79.572 12.0533 79.4453 12.3667 79.4453 12.78C79.4453 13.2333 79.6586 13.5867 80.0853 13.84C80.512 14.0933 81.1786 14.3667 82.0853 14.66C82.992 14.9667 83.7253 15.26 84.2853 15.54C84.8586 15.82 85.352 16.2267 85.7653 16.76C86.1786 17.2933 86.3853 17.98 86.3853 18.82C86.3853 19.62 86.1786 20.3467 85.7653 21C85.3653 21.6533 84.7786 22.1733 84.0053 22.56C83.232 22.9467 82.3186 23.14 81.2653 23.14ZM98.59 8.96V11.7H94.87V23H91.45V11.7H87.73V8.96H98.59ZM103.726 11.7V14.54H108.306V17.18H103.726V20.26H108.906V23H100.306V8.96H108.906V11.7H103.726ZM119.267 23L114.547 16.8V23H111.127V8.96H114.547V15.12L119.227 8.96H123.247L117.807 15.84L123.447 23H119.267ZM138.45 8.96V11.7H132.73V14.66H137.01V17.32H132.73V23H129.31V8.96H138.45ZM148.988 20.52H143.748L142.908 23H139.328L144.408 8.96H148.368L153.448 23H149.828L148.988 20.52ZM148.108 17.88L146.368 12.74L144.648 17.88H148.108ZM160.074 23.14C159.047 23.14 158.127 22.9733 157.314 22.64C156.501 22.3067 155.847 21.8133 155.354 21.16C154.874 20.5067 154.621 19.72 154.594 18.8H158.234C158.287 19.32 158.467 19.72 158.774 20C159.081 20.2667 159.481 20.4 159.974 20.4C160.481 20.4 160.881 20.2867 161.174 20.06C161.467 19.82 161.614 19.4933 161.614 19.08C161.614 18.7333 161.494 18.4467 161.254 18.22C161.027 17.9933 160.741 17.8067 160.394 17.66C160.061 17.5133 159.581 17.3467 158.954 17.16C158.047 16.88 157.307 16.6 156.734 16.32C156.161 16.04 155.667 15.6267 155.254 15.08C154.841 14.5333 154.634 13.82 154.634 12.94C154.634 11.6333 155.107 10.6133 156.054 9.88C157.001 9.13333 158.234 8.76 159.754 8.76C161.301 8.76 162.547 9.13333 163.494 9.88C164.441 10.6133 164.947 11.64 165.014 12.96H161.314C161.287 12.5067 161.121 12.1533 160.814 11.9C160.507 11.6333 160.114 11.5 159.634 11.5C159.221 11.5 158.887 11.6133 158.634 11.84C158.381 12.0533 158.254 12.3667 158.254 12.78C158.254 13.2333 158.467 13.5867 158.894 13.84C159.321 14.0933 159.987 14.3667 160.894 14.66C161.801 14.9667 162.534 15.26 163.094 15.54C163.667 15.82 164.161 16.2267 164.574 16.76C164.987 17.2933 165.194 17.98 165.194 18.82C165.194 19.62 164.987 20.3467 164.574 21C164.174 21.6533 163.587 22.1733 162.814 22.56C162.041 22.9467 161.127 23.14 160.074 23.14ZM170.719 8.96V23H167.299V8.96H170.719ZM176.617 20.36H181.097V23H173.197V8.96H176.617V20.36ZM190.868 23L186.148 16.8V23H182.728V8.96H186.148V15.12L190.828 8.96H194.848L189.408 15.84L195.048 23H190.868ZM203.314 23.14C201.994 23.14 200.78 22.8333 199.674 22.22C198.58 21.6067 197.707 20.7533 197.054 19.66C196.414 18.5533 196.094 17.3133 196.094 15.94C196.094 14.5667 196.414 13.3333 197.054 12.24C197.707 11.1467 198.58 10.2933 199.674 9.68C200.78 9.06667 201.994 8.76 203.314 8.76C204.634 8.76 205.84 9.06667 206.934 9.68C208.04 10.2933 208.907 11.1467 209.534 12.24C210.174 13.3333 210.494 14.5667 210.494 15.94C210.494 17.3133 210.174 18.5533 209.534 19.66C208.894 20.7533 208.027 21.6067 206.934 22.22C205.84 22.8333 204.634 23.14 203.314 23.14ZM203.314 20.02C204.434 20.02 205.327 19.6467 205.994 18.9C206.674 18.1533 207.014 17.1667 207.014 15.94C207.014 14.7 206.674 13.7133 205.994 12.98C205.327 12.2333 204.434 11.86 203.314 11.86C202.18 11.86 201.274 12.2267 200.594 12.96C199.927 13.6933 199.594 14.6867 199.594 15.94C199.594 17.18 199.927 18.1733 200.594 18.92C201.274 19.6533 202.18 20.02 203.314 20.02ZM228.296 8.96V23H224.876V14.58L221.736 23H218.976L215.816 14.56V23H212.396V8.96H216.436L220.376 18.68L224.276 8.96H228.296ZM238.354 8.96V17.36C238.354 18.2 238.561 18.8467 238.974 19.3C239.387 19.7533 239.994 19.98 240.794 19.98C241.594 19.98 242.207 19.7533 242.634 19.3C243.061 18.8467 243.274 18.2 243.274 17.36V8.96H246.694V17.34C246.694 18.5933 246.427 19.6533 245.894 20.52C245.361 21.3867 244.641 22.04 243.734 22.48C242.841 22.92 241.841 23.14 240.734 23.14C239.627 23.14 238.634 22.9267 237.754 22.5C236.887 22.06 236.201 21.4067 235.694 20.54C235.187 19.66 234.934 18.5933 234.934 17.34V8.96H238.354ZM252.515 8.96V23H249.095V8.96H252.515Z" fill="#5038BC"/>
<path d="M64.806 34.56L64.274 37.08H66.206V38.2H64.036L63.434 41H62.216L62.818 38.2H59.878L59.276 41H58.058L58.66 38.2H56.462V37.08H58.898L59.43 34.56H57.26V33.44H59.668L60.27 30.64H61.488L60.886 33.44H63.826L64.428 30.64H65.646L65.044 33.44H66.99V34.56H64.806ZM63.588 34.56H60.648L60.116 37.08H63.056L63.588 34.56ZM76.2278 34.07C75.9571 33.5007 75.5651 33.062 75.0518 32.754C74.5385 32.4367 73.9411 32.278 73.2598 32.278C72.5785 32.278 71.9625 32.4367 71.4118 32.754C70.8705 33.062 70.4411 33.51 70.1238 34.098C69.8158 34.6767 69.6618 35.3487 69.6618 36.114C69.6618 36.8793 69.8158 37.5513 70.1238 38.13C70.4411 38.7087 70.8705 39.1567 71.4118 39.474C71.9625 39.782 72.5785 39.936 73.2598 39.936C74.2118 39.936 74.9958 39.6513 75.6118 39.082C76.2278 38.5127 76.5871 37.7427 76.6898 36.772H72.7978V35.736H78.0478V36.716C77.9731 37.5187 77.7211 38.256 77.2918 38.928C76.8625 39.5907 76.2978 40.118 75.5978 40.51C74.8978 40.8927 74.1185 41.084 73.2598 41.084C72.3545 41.084 71.5285 40.874 70.7818 40.454C70.0351 40.0247 69.4425 39.432 69.0038 38.676C68.5745 37.92 68.3598 37.066 68.3598 36.114C68.3598 35.162 68.5745 34.308 69.0038 33.552C69.4425 32.7867 70.0351 32.194 70.7818 31.774C71.5285 31.3447 72.3545 31.13 73.2598 31.13C74.2958 31.13 75.2105 31.3867 76.0038 31.9C76.8065 32.4133 77.3898 33.1367 77.7538 34.07H76.2278ZM81.0063 34.574C81.2303 34.1353 81.5476 33.7947 81.9583 33.552C82.3783 33.3093 82.887 33.188 83.4843 33.188V34.504H83.1483C81.7203 34.504 81.0063 35.2787 81.0063 36.828V41H79.7323V33.328H81.0063V34.574ZM88.301 41.126C87.5823 41.126 86.929 40.9627 86.341 40.636C85.7623 40.3093 85.305 39.8473 84.969 39.25C84.6423 38.6433 84.479 37.9433 84.479 37.15C84.479 36.366 84.647 35.6753 84.983 35.078C85.3283 34.4713 85.795 34.0093 86.383 33.692C86.971 33.3653 87.629 33.202 88.357 33.202C89.085 33.202 89.743 33.3653 90.331 33.692C90.919 34.0093 91.381 34.4667 91.717 35.064C92.0623 35.6613 92.235 36.3567 92.235 37.15C92.235 37.9433 92.0576 38.6433 91.703 39.25C91.3576 39.8473 90.8863 40.3093 90.289 40.636C89.6916 40.9627 89.029 41.126 88.301 41.126ZM88.301 40.006C88.7583 40.006 89.1876 39.8987 89.589 39.684C89.9903 39.4693 90.3123 39.1473 90.555 38.718C90.807 38.2887 90.933 37.766 90.933 37.15C90.933 36.534 90.8116 36.0113 90.569 35.582C90.3263 35.1527 90.009 34.8353 89.617 34.63C89.225 34.4153 88.8003 34.308 88.343 34.308C87.8763 34.308 87.447 34.4153 87.055 34.63C86.6723 34.8353 86.3643 35.1527 86.131 35.582C85.8976 36.0113 85.781 36.534 85.781 37.15C85.781 37.7753 85.893 38.3027 86.117 38.732C86.3503 39.1613 86.6583 39.4833 87.041 39.698C87.4236 39.9033 87.8436 40.006 88.301 40.006ZM100.714 33.328V41H99.44V39.866C99.1974 40.258 98.8567 40.566 98.418 40.79C97.9887 41.0047 97.5127 41.112 96.99 41.112C96.3927 41.112 95.856 40.9907 95.38 40.748C94.904 40.496 94.526 40.1227 94.246 39.628C93.9754 39.1333 93.84 38.5313 93.84 37.822V33.328H95.1V37.654C95.1 38.41 95.2914 38.9933 95.674 39.404C96.0567 39.8053 96.5794 40.006 97.242 40.006C97.9234 40.006 98.46 39.796 98.852 39.376C99.244 38.956 99.44 38.3447 99.44 37.542V33.328H100.714ZM106.603 33.188C107.536 33.188 108.292 33.4727 108.871 34.042C109.45 34.602 109.739 35.414 109.739 36.478V41H108.479V36.66C108.479 35.8947 108.288 35.3113 107.905 34.91C107.522 34.4993 107 34.294 106.337 34.294C105.665 34.294 105.128 34.504 104.727 34.924C104.335 35.344 104.139 35.9553 104.139 36.758V41H102.865V33.328H104.139V34.42C104.391 34.028 104.732 33.7247 105.161 33.51C105.6 33.2953 106.08 33.188 106.603 33.188ZM111.344 37.136C111.344 36.352 111.503 35.666 111.82 35.078C112.138 34.4807 112.572 34.0187 113.122 33.692C113.682 33.3653 114.308 33.202 114.998 33.202C115.596 33.202 116.151 33.342 116.664 33.622C117.178 33.8927 117.57 34.252 117.84 34.7V30.64H119.128V41H117.84V39.558C117.588 40.0153 117.215 40.3933 116.72 40.692C116.226 40.9813 115.647 41.126 114.984 41.126C114.303 41.126 113.682 40.958 113.122 40.622C112.572 40.286 112.138 39.8147 111.82 39.208C111.503 38.6013 111.344 37.9107 111.344 37.136ZM117.84 37.15C117.84 36.5713 117.724 36.0673 117.49 35.638C117.257 35.2087 116.94 34.882 116.538 34.658C116.146 34.4247 115.712 34.308 115.236 34.308C114.76 34.308 114.326 34.42 113.934 34.644C113.542 34.868 113.23 35.1947 112.996 35.624C112.763 36.0533 112.646 36.5573 112.646 37.136C112.646 37.724 112.763 38.2373 112.996 38.676C113.23 39.1053 113.542 39.4367 113.934 39.67C114.326 39.894 114.76 40.006 115.236 40.006C115.712 40.006 116.146 39.894 116.538 39.67C116.94 39.4367 117.257 39.1053 117.49 38.676C117.724 38.2373 117.84 37.7287 117.84 37.15ZM122.555 34.756C122.816 34.2987 123.199 33.9253 123.703 33.636C124.207 33.3467 124.781 33.202 125.425 33.202C126.116 33.202 126.736 33.3653 127.287 33.692C127.838 34.0187 128.272 34.4807 128.589 35.078C128.906 35.666 129.065 36.352 129.065 37.136C129.065 37.9107 128.906 38.6013 128.589 39.208C128.272 39.8147 127.833 40.286 127.273 40.622C126.722 40.958 126.106 41.126 125.425 41.126C124.762 41.126 124.179 40.9813 123.675 40.692C123.18 40.4027 122.807 40.034 122.555 39.586V41H121.281V30.64H122.555V34.756ZM127.763 37.136C127.763 36.5573 127.646 36.0533 127.413 35.624C127.18 35.1947 126.862 34.868 126.461 34.644C126.069 34.42 125.635 34.308 125.159 34.308C124.692 34.308 124.258 34.4247 123.857 34.658C123.465 34.882 123.148 35.2133 122.905 35.652C122.672 36.0813 122.555 36.5807 122.555 37.15C122.555 37.7287 122.672 38.2373 122.905 38.676C123.148 39.1053 123.465 39.4367 123.857 39.67C124.258 39.894 124.692 40.006 125.159 40.006C125.635 40.006 126.069 39.894 126.461 39.67C126.862 39.4367 127.18 39.1053 127.413 38.676C127.646 38.2373 127.763 37.724 127.763 37.136ZM132.016 34.574C132.24 34.1353 132.557 33.7947 132.968 33.552C133.388 33.3093 133.897 33.188 134.494 33.188V34.504H134.158C132.73 34.504 132.016 35.2787 132.016 36.828V41H130.742V33.328H132.016V34.574ZM142.965 36.87C142.965 37.1127 142.951 37.3693 142.923 37.64H136.791C136.837 38.396 137.094 38.9887 137.561 39.418C138.037 39.838 138.611 40.048 139.283 40.048C139.833 40.048 140.291 39.922 140.655 39.67C141.028 39.4087 141.289 39.0633 141.439 38.634H142.811C142.605 39.3713 142.195 39.9733 141.579 40.44C140.963 40.8973 140.197 41.126 139.283 41.126C138.555 41.126 137.901 40.9627 137.323 40.636C136.753 40.3093 136.305 39.8473 135.979 39.25C135.652 38.6433 135.489 37.9433 135.489 37.15C135.489 36.3567 135.647 35.6613 135.965 35.064C136.282 34.4667 136.725 34.0093 137.295 33.692C137.873 33.3653 138.536 33.202 139.283 33.202C140.011 33.202 140.655 33.3607 141.215 33.678C141.775 33.9953 142.204 34.434 142.503 34.994C142.811 35.5447 142.965 36.17 142.965 36.87ZM141.649 36.604C141.649 36.1187 141.541 35.7033 141.327 35.358C141.112 35.0033 140.818 34.7373 140.445 34.56C140.081 34.3733 139.675 34.28 139.227 34.28C138.583 34.28 138.032 34.4853 137.575 34.896C137.127 35.3067 136.87 35.876 136.805 36.604H141.649ZM144.17 37.136C144.17 36.352 144.329 35.666 144.646 35.078C144.964 34.4807 145.398 34.0187 145.948 33.692C146.508 33.3653 147.129 33.202 147.81 33.202C148.482 33.202 149.066 33.3467 149.56 33.636C150.055 33.9253 150.424 34.2893 150.666 34.728V33.328H151.954V41H150.666V39.572C150.414 40.02 150.036 40.3933 149.532 40.692C149.038 40.9813 148.459 41.126 147.796 41.126C147.115 41.126 146.499 40.958 145.948 40.622C145.398 40.286 144.964 39.8147 144.646 39.208C144.329 38.6013 144.17 37.9107 144.17 37.136ZM150.666 37.15C150.666 36.5713 150.55 36.0673 150.316 35.638C150.083 35.2087 149.766 34.882 149.364 34.658C148.972 34.4247 148.538 34.308 148.062 34.308C147.586 34.308 147.152 34.42 146.76 34.644C146.368 34.868 146.056 35.1947 145.822 35.624C145.589 36.0533 145.472 36.5573 145.472 37.136C145.472 37.724 145.589 38.2373 145.822 38.676C146.056 39.1053 146.368 39.4367 146.76 39.67C147.152 39.894 147.586 40.006 148.062 40.006C148.538 40.006 148.972 39.894 149.364 39.67C149.766 39.4367 150.083 39.1053 150.316 38.676C150.55 38.2373 150.666 37.7287 150.666 37.15ZM158.391 41L155.381 37.612V41H154.107V30.64H155.381V36.73L158.335 33.328H160.113L156.501 37.15L160.127 41H158.391ZM161.97 32.082C161.728 32.082 161.522 31.998 161.354 31.83C161.186 31.662 161.102 31.4567 161.102 31.214C161.102 30.9713 161.186 30.766 161.354 30.598C161.522 30.43 161.728 30.346 161.97 30.346C162.204 30.346 162.4 30.43 162.558 30.598C162.726 30.766 162.81 30.9713 162.81 31.214C162.81 31.4567 162.726 31.662 162.558 31.83C162.4 31.998 162.204 32.082 161.97 32.082ZM162.586 33.328V41H161.312V33.328H162.586ZM168.496 33.188C169.429 33.188 170.185 33.4727 170.764 34.042C171.342 34.602 171.632 35.414 171.632 36.478V41H170.372V36.66C170.372 35.8947 170.18 35.3113 169.798 34.91C169.415 34.4993 168.892 34.294 168.23 34.294C167.558 34.294 167.021 34.504 166.62 34.924C166.228 35.344 166.032 35.9553 166.032 36.758V41H164.758V33.328H166.032V34.42C166.284 34.028 166.624 33.7247 167.054 33.51C167.492 33.2953 167.973 33.188 168.496 33.188ZM176.877 33.202C177.539 33.202 178.118 33.3467 178.613 33.636C179.117 33.9253 179.49 34.2893 179.733 34.728V33.328H181.021V41.168C181.021 41.868 180.871 42.4887 180.573 43.03C180.274 43.5807 179.845 44.01 179.285 44.318C178.734 44.626 178.09 44.78 177.353 44.78C176.345 44.78 175.505 44.542 174.833 44.066C174.161 43.59 173.764 42.9413 173.643 42.12H174.903C175.043 42.5867 175.332 42.96 175.771 43.24C176.209 43.5293 176.737 43.674 177.353 43.674C178.053 43.674 178.622 43.4547 179.061 43.016C179.509 42.5773 179.733 41.9613 179.733 41.168V39.558C179.481 40.006 179.107 40.3793 178.613 40.678C178.118 40.9767 177.539 41.126 176.877 41.126C176.195 41.126 175.575 40.958 175.015 40.622C174.464 40.286 174.03 39.8147 173.713 39.208C173.395 38.6013 173.237 37.9107 173.237 37.136C173.237 36.352 173.395 35.666 173.713 35.078C174.03 34.4807 174.464 34.0187 175.015 33.692C175.575 33.3653 176.195 33.202 176.877 33.202ZM179.733 37.15C179.733 36.5713 179.616 36.0673 179.383 35.638C179.149 35.2087 178.832 34.882 178.431 34.658C178.039 34.4247 177.605 34.308 177.129 34.308C176.653 34.308 176.219 34.42 175.827 34.644C175.435 34.868 175.122 35.1947 174.889 35.624C174.655 36.0533 174.539 36.5573 174.539 37.136C174.539 37.724 174.655 38.2373 174.889 38.676C175.122 39.1053 175.435 39.4367 175.827 39.67C176.219 39.894 176.653 40.006 177.129 40.006C177.605 40.006 178.039 39.894 178.431 39.67C178.832 39.4367 179.149 39.1053 179.383 38.676C179.616 38.2373 179.733 37.7287 179.733 37.15ZM189.488 34.28C189.31 33.9533 189.054 33.706 188.718 33.538C188.391 33.3607 188.004 33.272 187.556 33.272C186.781 33.272 186.16 33.5287 185.694 34.042C185.227 34.546 184.994 35.2227 184.994 36.072C184.994 36.9773 185.236 37.6867 185.722 38.2C186.216 38.704 186.893 38.956 187.752 38.956C188.34 38.956 188.834 38.8067 189.236 38.508C189.646 38.2093 189.945 37.78 190.132 37.22H187.094V35.456H192.302V37.682C192.124 38.2793 191.821 38.8347 191.392 39.348C190.972 39.8613 190.435 40.2767 189.782 40.594C189.128 40.9113 188.391 41.07 187.57 41.07C186.599 41.07 185.731 40.86 184.966 40.44C184.21 40.0107 183.617 39.418 183.188 38.662C182.768 37.906 182.558 37.0427 182.558 36.072C182.558 35.1013 182.768 34.238 183.188 33.482C183.617 32.7167 184.21 32.124 184.966 31.704C185.722 31.2747 186.585 31.06 187.556 31.06C188.732 31.06 189.721 31.3447 190.524 31.914C191.336 32.4833 191.872 33.272 192.134 34.28H189.488ZM196.022 34.49C196.302 34.0607 196.652 33.7247 197.072 33.482C197.492 33.23 197.958 33.104 198.472 33.104V35.638H197.814C197.216 35.638 196.768 35.7687 196.47 36.03C196.171 36.282 196.022 36.73 196.022 37.374V41H193.628V33.188H196.022V34.49ZM203.172 41.112C202.407 41.112 201.716 40.9487 201.1 40.622C200.493 40.2953 200.013 39.8287 199.658 39.222C199.313 38.6153 199.14 37.906 199.14 37.094C199.14 36.2913 199.317 35.5867 199.672 34.98C200.027 34.364 200.512 33.8927 201.128 33.566C201.744 33.2393 202.435 33.076 203.2 33.076C203.965 33.076 204.656 33.2393 205.272 33.566C205.888 33.8927 206.373 34.364 206.728 34.98C207.083 35.5867 207.26 36.2913 207.26 37.094C207.26 37.8967 207.078 38.606 206.714 39.222C206.359 39.8287 205.869 40.2953 205.244 40.622C204.628 40.9487 203.937 41.112 203.172 41.112ZM203.172 39.04C203.629 39.04 204.017 38.872 204.334 38.536C204.661 38.2 204.824 37.7193 204.824 37.094C204.824 36.4687 204.665 35.988 204.348 35.652C204.04 35.316 203.657 35.148 203.2 35.148C202.733 35.148 202.346 35.316 202.038 35.652C201.73 35.9787 201.576 36.4593 201.576 37.094C201.576 37.7193 201.725 38.2 202.024 38.536C202.332 38.872 202.715 39.04 203.172 39.04ZM219.744 33.188L217.63 41H214.984L213.752 35.932L212.478 41H209.846L207.718 33.188H210.112L211.218 38.774L212.534 33.188H215.068L216.398 38.746L217.49 33.188H219.744ZM225.011 38.97V41H223.793C222.925 41 222.248 40.79 221.763 40.37C221.278 39.9407 221.035 39.2453 221.035 38.284V35.176H220.083V33.188H221.035V31.284H223.429V33.188H224.997V35.176H223.429V38.312C223.429 38.5453 223.485 38.7133 223.597 38.816C223.709 38.9187 223.896 38.97 224.157 38.97H225.011ZM231.147 33.104C232.043 33.104 232.761 33.4027 233.303 34C233.844 34.588 234.115 35.4 234.115 36.436V41H231.735V36.758C231.735 36.2353 231.599 35.8293 231.329 35.54C231.058 35.2507 230.694 35.106 230.237 35.106C229.779 35.106 229.415 35.2507 229.145 35.54C228.874 35.8293 228.739 36.2353 228.739 36.758V41H226.345V30.64H228.739V34.238C228.981 33.8927 229.313 33.6173 229.733 33.412C230.153 33.2067 230.624 33.104 231.147 33.104Z" fill="#5038BC"/>
</g>
<defs>
<linearGradient id="paint0_linear_489_4430" x1="11.5" y1="7" x2="11.5" y2="18.9583" gradientUnits="userSpaceOnUse">
<stop stop-color="#3C317E"/>
<stop offset="1" stop-color="#5038BC"/>
</linearGradient>
<linearGradient id="paint1_linear_489_4430" x1="29.3542" y1="3.5" x2="23.1259" y2="3.5" gradientUnits="userSpaceOnUse">
<stop stop-color="#3C317E"/>
<stop offset="1" stop-color="#5038BC"/>
</linearGradient>
<linearGradient id="paint2_linear_489_4430" x1="36.5" y1="22.2083" x2="36.5" y2="15.7309" gradientUnits="userSpaceOnUse">
<stop stop-color="#3C317E"/>
<stop offset="1" stop-color="#5038BC"/>
</linearGradient>
<linearGradient id="paint3_linear_489_4430" x1="21.2083" y1="22.5" x2="26.6892" y2="22.5" gradientUnits="userSpaceOnUse">
<stop stop-color="#3C317E"/>
<stop offset="1" stop-color="#5038BC"/>
</linearGradient>
<clipPath id="clip0_489_4430">
<rect width="254" height="48" fill="white"/>
</clipPath>
</defs>
</svg>
