<svg width="48" height="48" viewBox="0 0 48 48" fill="none" xmlns="http://www.w3.org/2000/svg">
<path d="M8 7L15 0V48H8V7Z" fill="url(#paint0_linear_804_2761)"/>
<path d="M8 7L15 7.86805e-07L33 0L33 7.00001L8 7Z" fill="url(#paint1_linear_804_2761)"/>
<path d="M33 -6.11959e-07L40 7L40 19L33 26L33 -6.11959e-07Z" fill="url(#paint2_linear_804_2761)"/>
<path d="M18 19L18 26L33 26L40 19L18 19Z" fill="url(#paint3_linear_804_2761)"/>
<path d="M35 48L40 43L18 19L15 26L35 48Z" fill="#5038BC"/>
<defs>
<linearGradient id="paint0_linear_804_2761" x1="11.5" y1="7" x2="11.5" y2="18.9583" gradientUnits="userSpaceOnUse">
<stop stop-color="#3C317E"/>
<stop offset="1" stop-color="#5038BC"/>
</linearGradient>
<linearGradient id="paint1_linear_804_2761" x1="29.3542" y1="3.5" x2="23.1259" y2="3.5" gradientUnits="userSpaceOnUse">
<stop stop-color="#3C317E"/>
<stop offset="1" stop-color="#5038BC"/>
</linearGradient>
<linearGradient id="paint2_linear_804_2761" x1="36.5" y1="22.2083" x2="36.5" y2="15.7309" gradientUnits="userSpaceOnUse">
<stop stop-color="#3C317E"/>
<stop offset="1" stop-color="#5038BC"/>
</linearGradient>
<linearGradient id="paint3_linear_804_2761" x1="21.2083" y1="22.5" x2="26.6892" y2="22.5" gradientUnits="userSpaceOnUse">
<stop stop-color="#3C317E"/>
<stop offset="1" stop-color="#5038BC"/>
</linearGradient>
</defs>
</svg>
