<svg width="396" height="696" viewBox="0 0 396 696" fill="none" xmlns="http://www.w3.org/2000/svg">
<g opacity="0.1">
<path fill-rule="evenodd" clip-rule="evenodd" d="M55.7251 0C24.9491 0 0 25.3763 0 56.679C0 87.9818 24.9491 113.358 55.7251 113.358C86.5014 113.358 111.451 87.9818 111.451 56.679C111.451 25.3763 86.5014 0 55.7251 0ZM55.7257 24.1207C38.0458 24.1207 23.7133 38.6971 23.7133 56.679C23.7133 74.661 38.0458 89.2406 55.7257 89.2406C73.4056 89.2406 87.7381 74.661 87.7381 56.679C87.7381 38.6971 73.4056 24.1207 55.7257 24.1207Z" fill="white"/>
<path fill-rule="evenodd" clip-rule="evenodd" d="M55.7251 291.589C24.9491 291.589 0 316.966 0 348.269C0 379.567 24.9491 404.944 55.7251 404.944C86.5014 404.944 111.451 379.567 111.451 348.269C111.451 316.966 86.5014 291.589 55.7251 291.589ZM55.7257 315.706C38.0458 315.706 23.7133 330.283 23.7133 348.264C23.7133 366.25 38.0458 380.827 55.7257 380.827C73.4056 380.827 87.7381 366.25 87.7381 348.264C87.7381 330.283 73.4056 315.706 55.7257 315.706Z" fill="white"/>
<path d="M73.5141 89.2327H37.9445V267.71H73.5141V89.2327Z" fill="white"/>
<path d="M90.1077 38.5865V74.7644H265.583V38.5865H90.1077Z" fill="white"/>
<path fill-rule="evenodd" clip-rule="evenodd" d="M55.7255 695.004C86.5014 695.004 111.451 669.628 111.451 638.325C111.451 607.023 86.5014 581.646 55.7255 581.646C24.9491 581.646 0 607.023 0 638.325C0 669.628 24.9491 695.004 55.7255 695.004ZM55.7248 670.888C73.4046 670.888 87.7373 656.306 87.7373 638.325C87.7373 620.344 73.4046 605.767 55.7248 605.767C38.0449 605.767 23.7124 620.344 23.7124 638.325C23.7124 656.306 38.0449 670.888 55.7248 670.888Z" fill="white"/>
<path d="M37.9373 605.772H73.507V427.295H37.9373V605.772Z" fill="white"/>
<path fill-rule="evenodd" clip-rule="evenodd" d="M302.953 587.72C324.716 565.587 324.716 529.699 302.953 507.567C281.191 485.429 245.909 485.429 224.144 507.567C202.385 529.699 202.385 565.587 224.144 587.72C245.909 609.856 281.191 609.856 302.953 587.72ZM286.188 570.666C298.688 557.951 298.688 537.336 286.188 524.621C273.683 511.902 253.413 511.902 240.912 524.621C228.412 537.336 228.412 557.951 240.912 570.666C253.413 583.383 273.683 583.383 286.188 570.666Z" fill="white"/>
<path d="M228.333 537.408L253.485 511.825L129.404 385.625L104.253 411.205L228.333 537.408Z" fill="white"/>
<path fill-rule="evenodd" clip-rule="evenodd" d="M396 348.269C396 316.966 371.052 291.589 340.275 291.589C309.499 291.589 284.552 316.966 284.552 348.269C284.552 379.567 309.499 404.944 340.275 404.944C371.052 404.944 396 379.567 396 348.269ZM372.288 348.264C372.288 330.283 357.955 315.706 340.275 315.706C322.595 315.706 308.264 330.283 308.264 348.264C308.264 366.25 322.595 380.827 340.275 380.827C357.955 380.827 372.288 366.25 372.288 348.264Z" fill="white"/>
<path d="M308.268 366.344V330.165H132.792V366.344H308.268Z" fill="white"/>
<path fill-rule="evenodd" clip-rule="evenodd" d="M337.906 0C307.129 0 282.181 25.3763 282.181 56.679C282.181 87.9818 307.129 113.358 337.906 113.358C368.682 113.358 393.633 87.9818 393.633 56.679C393.633 25.3763 368.682 0 337.906 0ZM337.906 24.1207C320.228 24.1207 305.895 38.6971 305.895 56.679C305.895 74.661 320.228 89.2406 337.906 89.2406C355.59 89.2406 369.921 74.661 369.921 56.679C369.921 38.6971 355.59 24.1207 337.906 24.1207Z" fill="white"/>
<path d="M355.694 89.2327H320.126V267.71H355.694V89.2327Z" fill="white"/>
</g>
</svg>
